# xmcd
#
# Track frame offsets:
#	150
#	14461
#	31311
#	42620
#	59046
#	73025
#	91910
#
# Disc length: 1437 seconds
#
# Revision: 0
# Processed by: cddbd v1.4PL0 Copyright (c) Steve Scherf et al.
# Submitted via: dBpowerAMP V4.0
#
DISCID=60059b07
DTITLE=Kimlai - The Journey has Begun
DYEAR=2003
DGENRE=Country
TTITLE0=Jezebel
TTITLE1=If I'm not in love
TTITLE2=Somedays you gotta dance
TTITLE3=It was
TTITLE4=Fun of your love
TTITLE5=Silver Thunderbird
TTITLE6=Breathless
EXTD=The Journey has Begun
EXTT0=
EXTT1=
EXTT2=
EXTT3=
EXTT4=
EXTT5=
EXTT6=
PLAYORDER=
